<svg viewBox="0 0 10 18" fill="none" xmlns="http://www.w3.org/2000/svg">
<path d="M0.0625 8.87402C0.0625 8.71322 0.090332 8.56478 0.145996 8.42871C0.207845 8.29264 0.300618 8.16276 0.424316 8.03906L7.65137 0.969727C7.86165 0.765625 8.11523 0.663574 8.41211 0.663574C8.61621 0.663574 8.79867 0.713053 8.95947 0.812012C9.12646 0.904785 9.25944 1.03158 9.3584 1.19238C9.45736 1.35319 9.50684 1.53564 9.50684 1.73975C9.50684 2.03044 9.39242 2.2902 9.16357 2.51904L2.65088 8.87402L9.16357 15.229C9.39242 15.4578 9.50684 15.7207 9.50684 16.0176C9.50684 16.2155 9.45736 16.3949 9.3584 16.5557C9.25944 16.7227 9.12646 16.8525 8.95947 16.9453C8.79867 17.0443 8.61621 17.0938 8.41211 17.0938C8.11523 17.0938 7.86165 16.9886 7.65137 16.7783L0.424316 9.70898C0.300618 9.58529 0.207845 9.4554 0.145996 9.31934C0.090332 9.18327 0.0625 9.03483 0.0625 8.87402Z" />
</svg>
