<svg viewBox="0 0 17 10" fill="none" xmlns="http://www.w3.org/2000/svg">
<path d="M8.78003 10.0286C8.61922 10.0286 8.47078 10.0007 8.33472 9.94507C8.19865 9.88322 8.06877 9.79045 7.94507 9.66675L0.875732 2.4397C0.671631 2.22941 0.56958 1.97583 0.56958 1.67896C0.56958 1.47485 0.619059 1.2924 0.718017 1.13159C0.810791 0.9646 0.937581 0.831624 1.09839 0.732666C1.2592 0.633708 1.44165 0.584228 1.64575 0.584228C1.93644 0.584228 2.19621 0.698649 2.42505 0.92749L8.78003 7.44019L15.135 0.92749C15.3639 0.698648 15.6267 0.584228 15.9236 0.584228C16.1215 0.584228 16.3009 0.633707 16.4617 0.732665C16.6287 0.831624 16.7585 0.964599 16.8513 1.13159C16.9503 1.2924 16.9998 1.47485 16.9998 1.67895C16.9998 1.97583 16.8946 2.22941 16.6843 2.4397L9.61499 9.66675C9.49129 9.79045 9.36141 9.88322 9.22534 9.94507C9.08927 10.0007 8.94084 10.0286 8.78003 10.0286Z" />
</svg>
