<svg viewBox="0 0 50 50" fill="none" xmlns="http://www.w3.org/2000/svg">
<circle cx="25" cy="25" r="25" fill="#EDEDED"/>
<path d="M29.836 12.4698C29.9835 12.5875 30.1262 12.7085 30.2682 12.8316C30.3214 12.8764 30.3747 12.9212 30.4296 12.9673C30.8341 13.317 31.1445 13.6797 31.444 14.1063C31.4993 14.1842 31.4993 14.1842 31.5558 14.2638C32.5462 15.7223 32.8557 17.6444 32.442 19.3124C31.9517 21.0575 30.8031 22.609 29.0924 23.5601C29.0393 23.5919 28.9863 23.6236 28.9316 23.6564C27.346 24.5628 25.2754 24.8134 23.4485 24.4829C22.0323 24.1945 20.7892 23.5606 19.7448 22.6572C19.679 22.6028 19.679 22.6028 19.6118 22.5472C19.2226 22.2146 18.9229 21.837 18.6278 21.4356C18.5908 21.3861 18.5538 21.3365 18.5157 21.2854C17.5013 19.8275 17.2162 17.8932 17.6339 16.2217C18.1306 14.4553 19.3006 12.8955 21.0387 11.938C21.7102 11.5802 22.4049 11.3239 23.1546 11.1321C23.2239 11.1139 23.2931 11.0958 23.3645 11.0771C25.5961 10.6008 28.0813 11.1605 29.836 12.4698ZM21.6848 14.425C21.6401 14.4604 21.5953 14.4957 21.5491 14.5322C20.71 15.2404 20.0888 16.3589 20.0387 17.3992C20.0357 17.4523 20.0327 17.5054 20.0295 17.5602C19.9935 18.7665 20.4485 19.8908 21.3321 20.7983C21.3909 20.859 21.3909 20.859 21.4508 20.9209C22.2347 21.679 23.4728 22.2402 24.6243 22.2854C24.6831 22.2882 24.742 22.2909 24.8025 22.2937C26.1379 22.3263 27.3824 21.9153 28.3869 21.117C28.4317 21.0816 28.4765 21.0462 28.5226 21.0097C29.4395 20.236 29.9657 19.0954 30.045 17.9737C30.0642 16.7664 29.6266 15.6546 28.7396 14.7436C28.7005 14.7032 28.6613 14.6627 28.6209 14.621C27.7644 13.7927 26.502 13.3173 25.2602 13.2457C23.9239 13.2283 22.6932 13.6236 21.6848 14.425Z" fill="#3F409B"/>
<path d="M32.4992 29.3288C32.679 29.475 32.8554 29.6241 33.0313 29.774C33.0774 29.8128 33.1235 29.8515 33.171 29.8915C35.1255 31.5878 36.2768 34.1206 36.3526 36.5501C36.3539 36.6133 36.3553 36.6765 36.3566 36.7416C36.3589 36.8018 36.3612 36.8621 36.3636 36.9241C36.365 37.3319 36.2777 37.5955 35.9708 37.9001C35.5836 38.2026 35.1674 38.1956 34.6775 38.1656C34.3266 38.0581 34.087 37.8494 33.9081 37.5581C33.7567 37.2768 33.752 36.9966 33.7368 36.6885C33.6143 34.9434 32.9491 33.2886 31.6792 31.9516C31.6381 31.908 31.597 31.8644 31.5547 31.8194C30.2027 30.422 28.3591 29.523 26.3293 29.2429C26.2598 29.2332 26.1903 29.2235 26.1187 29.2135C25.1434 29.1078 24.1104 29.1431 23.1546 29.3491C23.1112 29.3582 23.0678 29.3674 23.023 29.3768C20.7831 29.8589 18.8273 31.1284 17.6187 32.9018C16.9241 33.9414 16.4559 35.101 16.3672 36.3187C16.3629 36.377 16.3586 36.4352 16.3542 36.4952C16.3465 36.6102 16.34 36.7251 16.3349 36.8402C16.3089 37.2476 16.2178 37.6438 15.8784 37.9366C15.4836 38.2006 15.1046 38.2007 14.6301 38.1656C14.2732 38.084 14.0808 37.8953 13.8734 37.6293C13.3463 36.8269 13.8302 35.2763 14.059 34.425C14.4446 33.0775 15.1429 31.8187 16.0998 30.73C16.126 30.7003 16.1521 30.6705 16.179 30.6399C16.8113 29.928 17.5168 29.3021 18.3339 28.7649C18.367 28.743 18.4001 28.721 18.4343 28.6984C22.6435 25.9459 28.6191 26.2181 32.4992 29.3288Z" fill="#3F409B"/>
</svg>
