<svg viewBox="0 0 117 35" fill="none" xmlns="http://www.w3.org/2000/svg">
<path d="M38.0847 0H36.998V35H38.0847V0Z" fill="white"/>
<path fill-rule="evenodd" clip-rule="evenodd" d="M19.7666 0.155334H22.0434V3.05474H23.958V0.155334H26.5453V3.05474H28.7704V0.155334H31.2025V13.0991H26.4418V10.4068H23.958V13.0473L19.7666 13.0991V0.155334Z" fill="white"/>
<path fill-rule="evenodd" clip-rule="evenodd" d="M0.051746 0.155334H4.76063V7.66273H11.4359V13.0991H0L0.051746 0.155334Z" fill="white"/>
<path fill-rule="evenodd" clip-rule="evenodd" d="M23.9067 15.7914V20.6065H19.767V27.3891H12.2121L12.2638 20.6583H6.98571V15.7914H0V17.3447V18.1213L0.051746 18.7944L0.103492 19.4675L0.155238 20.1406L0.310476 20.8136L0.362222 21.3832L0.51746 22.0045L0.620952 22.574L0.77619 23.0917L0.983175 23.6095L1.19016 24.1272L1.44889 24.645L1.65587 25.111L1.9146 25.5252L2.17333 25.9911L2.48381 26.4571L2.79429 26.8713L3.10476 27.2855L3.41524 27.648L3.77746 28.0104L4.19143 28.4246L4.5019 28.7352L4.91587 29.0977L5.32984 29.4601L5.79556 29.719L6.15778 30.0814L6.62349 30.3403L7.14095 30.6509L7.60667 30.9098L8.07238 31.2204L8.58984 31.4793L9.1073 31.79L9.67651 32.0488H9.72825L10.0905 32.2559L10.401 32.4113L10.8149 32.5666L11.1771 32.7737L11.4876 32.929L11.9016 33.1361L12.3156 33.3432L12.626 33.4985L13.04 33.6539L13.454 33.861L13.8679 34.0163L14.2302 34.1716L15.0581 34.534L15.9378 34.8965L16.714 34.534L17.5936 34.1716L18.3698 33.861L19.0943 33.4985L19.9222 33.1361L20.6467 32.7737L21.3711 32.4113L22.0956 32.0488L22.7683 31.7382L23.3892 31.324L24.1136 30.9098L24.6829 30.5474L25.3038 30.1332L25.873 29.719L26.3905 29.253L26.9079 28.787L27.4254 28.2693L27.8911 27.8551L28.3568 27.2855L28.719 26.7678L29.0813 26.1982L29.4952 25.5252L29.754 24.9039L30.0644 24.2826L30.3232 23.5577L30.5819 22.8329L30.7371 22.0562L30.8924 21.2278L31.0476 20.4512L31.1511 19.5193L31.2029 18.6391V17.6553V15.7914H23.9067Z" fill="white"/>
<path d="M43.7773 6.4719C44.657 6.57545 45.3297 6.00592 45.3297 3.88314V1.44971H49.4177V7.14497H48.538V2.07101H46.2094V4.03846C46.2094 6.679 45.1227 7.3003 43.8291 7.14497V6.4719H43.7773Z" fill="white"/>
<path d="M54.747 1.44971H55.6785L53.5051 6.16125C52.9877 7.24852 52.3667 7.24852 51.8493 7.24852C51.5388 7.24852 51.3835 7.24852 51.1248 7.19675V6.52367C51.3318 6.57545 51.5388 6.62722 51.7458 6.62722C52.108 6.62722 52.4702 6.57545 52.7807 5.74704L50.2969 1.44971H51.3835L53.2981 4.86687L54.747 1.44971Z" fill="white"/>
<path d="M60.543 6.4719V1.44971H61.4227V6.4719H62.3541L62.3024 8.43935H61.5779V7.19675H56.5068V1.50148H57.3865V6.52367H60.6465V6.4719H60.543Z" fill="white"/>
<path d="M64.1131 3.72783H66.0277C66.8039 3.72783 68.1493 3.93493 68.1493 5.43641C68.1493 6.93789 66.7004 7.09321 66.0277 7.09321H63.2852V1.39795H64.1648C64.1131 1.44972 64.1131 3.72783 64.1131 3.72783ZM64.1131 6.47191H65.8725C66.0277 6.47191 67.1661 6.42014 67.1661 5.43641C67.1661 4.91866 66.9591 4.40091 65.7172 4.40091H64.0613V6.47191H64.1131Z" fill="white"/>
<path d="M72.9103 1.44971H73.9969L70.8922 4.09024L74.1522 7.14497H73.0138L70.0125 4.14201V7.14497H69.1328V1.44971H70.0125V4.03846L72.9103 1.44971Z" fill="white"/>
<path d="M79.2754 1.44971H80.1551V7.14497H79.2754V2.48521L75.8602 7.14497H74.9805V1.44971H75.8602V6.00592L79.2754 1.44971Z" fill="white"/>
<path d="M86.1055 1.44971H86.9851V7.14498H86.1055V2.48522L82.6902 7.14498H81.8105V1.44971H82.6902V6.00593L86.1055 1.44971ZM83.4664 0.155334C83.4664 0.517761 83.7769 0.776636 84.3978 0.776636C85.0188 0.776636 85.2775 0.41421 85.3293 0.155334H86.002C85.795 0.931962 85.1223 1.24261 84.3978 1.24261C83.6734 1.24261 83.0007 0.931962 82.7937 0.155334H83.4664Z" fill="white"/>
<path d="M45.3299 16.3092H44.3984V10.6139H45.2781V12.9438H48.5381V10.6139H49.4178V16.3092H48.5381V13.6168H45.2781V16.3092H45.3299Z" fill="white"/>
<path d="M51.1258 16.3092H50.1943L52.6781 10.6139H53.6096L56.0934 16.3092H55.162L54.541 14.8077H51.7467L51.1258 16.3092ZM54.2823 14.1864L53.1439 11.3905L52.0054 14.1864H54.2823Z" fill="white"/>
<path d="M60.9571 15.6879V10.6657H61.8368V15.6879H62.7682L62.7165 17.6553H61.992V16.4127H56.9209V10.7175H57.8006V15.7396H61.0606V15.6879H60.9571Z" fill="white"/>
<path d="M64.5271 10.6657V16.3609H63.6475V10.6657H64.5271Z" fill="white"/>
<path d="M68.8225 10.4586C70.2714 10.4586 71.9273 11.1317 71.9273 13.5133C71.9273 16.5163 69.2365 16.5681 68.8225 16.5681C68.4086 16.5681 65.7178 16.5163 65.7178 13.5133C65.7178 11.4941 66.9597 10.4586 68.8225 10.4586ZM68.8225 15.8432C69.2882 15.8432 70.9959 15.7914 70.9959 13.5133C70.9959 12.2189 70.3232 11.1834 68.8225 11.1834C66.8044 11.1834 66.6492 12.9438 66.6492 13.5133C66.6492 14.3935 66.9597 15.8432 68.8225 15.8432Z" fill="white"/>
<path d="M73.9451 16.3092H73.0654V10.6139H73.9451V12.9438H77.2051V10.6139H78.0848V16.3092H77.2051V13.6168H73.9451V16.3092Z" fill="white"/>
<path d="M79.7928 16.3092H78.8613L81.3451 10.6139H82.2766L84.7604 16.3092H83.829L83.208 14.8077H80.4655L79.7928 16.3092ZM82.8975 14.1864L81.7591 11.3905L80.6207 14.1864H82.8975Z" fill="white"/>
<path d="M84.7598 15.6879C85.6394 15.7914 86.3121 15.2219 86.3121 13.0991V10.6139H90.4001V16.3092H89.5204V11.287H87.1918V13.2544C87.1918 15.895 86.1052 16.5163 84.8115 16.3609V15.6879H84.7598Z" fill="white"/>
<path d="M92.8328 12.9438H94.7474C95.5236 12.9438 96.869 13.1509 96.869 14.6524C96.869 16.1538 95.4201 16.3092 94.7474 16.3092H91.9531V10.6139H92.8328V12.9438ZM92.8328 15.6879H94.5922C94.7474 15.6879 95.8858 15.6361 95.8858 14.6524C95.8858 14.1346 95.6788 13.6168 94.4369 13.6168H92.7811L92.8328 15.6879Z" fill="white"/>
<path d="M98.7312 16.3092H97.8516V10.6139H98.7312V12.9438H101.991V10.6139H102.871V16.3092H101.991V13.6168H98.7312V16.3092Z" fill="white"/>
<path d="M108.771 10.6657H109.65V16.3609H108.771V11.7012L105.355 16.3609H104.476V10.6657H105.355V15.2219L108.771 10.6657Z" fill="white"/>
<path d="M115.549 10.6657H116.429V16.361H115.549V11.7012L112.134 16.361H111.254V10.6657H112.134V15.2219L115.549 10.6657ZM112.962 9.31955C112.962 9.68198 113.272 9.94085 113.893 9.94085C114.514 9.94085 114.773 9.57843 114.824 9.31955H115.497C115.29 10.0962 114.617 10.4068 113.893 10.4068C113.169 10.4068 112.496 10.0962 112.289 9.31955H112.962Z" fill="white"/>
<path d="M43.7773 20.503V19.8817H48.8485V20.503H46.7269V25.5252H45.8472V20.503H43.7773Z" fill="white"/>
<path d="M54.0234 22.2633V22.8846H50.6599V24.9038H54.4892V25.5251H49.7285V19.8299H54.3857V20.4512H50.6082V22.2633H54.0234Z" fill="white"/>
<path d="M59.0937 19.8299H60.1804L58.007 22.6257L60.2839 25.5251H59.1454L57.4378 23.1952L55.7302 25.5251H54.5918L56.8686 22.6257L54.6953 19.8299H55.782L57.3861 22.0562L59.0937 19.8299Z" fill="white"/>
<path d="M61.992 25.5251H61.1123V19.8299H61.992V22.1597H65.252V19.8299H66.1317V25.5251H65.252V22.8328H61.992V25.5251Z" fill="white"/>
<path d="M68.5115 19.8299V25.5251H67.6318V19.8299C67.6836 19.8299 68.5115 19.8299 68.5115 19.8299Z" fill="white"/>
<path d="M70.7371 19.8299V21.4867C70.7371 22.3668 71.2546 22.4704 72.2895 22.4704C72.6517 22.4704 73.2727 22.4186 73.5314 22.4186V19.8299H74.4111V25.5251H73.5314V23.0399C73.1692 23.0399 72.4447 23.0917 72.0825 23.0917C70.4784 23.0917 69.8057 22.781 69.8057 21.5902V19.8299C69.8574 19.8299 70.7371 19.8299 70.7371 19.8299Z" fill="white"/>
<path d="M76.8943 25.5251H76.0146V19.8299H76.8943V22.1597H80.1543V19.8299H81.034V25.5251H80.1543V22.8328H76.8943V25.5251Z" fill="white"/>
<path d="M86.9336 19.8299H87.8133V25.5251H86.9336V20.8654L83.5184 25.5251H82.6387V19.8299H83.5184V24.3861L86.9336 19.8299Z" fill="white"/>
<path d="M93.7119 19.8299H94.5916V25.5252H93.7119V20.8654L90.2967 25.5252H89.417V19.8299H90.2967V24.3861L93.7119 19.8299ZM91.0729 18.5355C91.0729 18.8979 91.3833 19.1568 92.0043 19.1568C92.6252 19.1568 92.884 18.7944 92.9357 18.5355H93.6084C93.4014 19.3121 92.7287 19.6228 92.0043 19.6228C91.2798 19.6228 90.6071 19.3121 90.4002 18.5355H91.0729Z" fill="white"/>
<path d="M48.1757 29.0459H49.1072L46.9338 33.7574C46.4164 34.8447 45.7954 34.8447 45.278 34.8447C44.9675 34.8447 44.8123 34.8447 44.5535 34.7929V34.1198C44.7605 34.1716 44.9675 34.2234 45.1745 34.2234C45.5367 34.2234 45.8989 34.1716 46.2094 33.3432L43.7256 29.0459H44.8123L46.7269 32.463L48.1757 29.0459Z" fill="white"/>
<path d="M50.7635 34.7411H49.8838V29.0459H50.7635V31.3757H54.0235V29.0459H54.9032V34.7411H54.0235V32.0488H50.7635V34.7411Z" fill="white"/>
<path d="M57.3348 29.0459V34.7411H56.4033V29.0459H57.3348Z" fill="white"/>
<path d="M61.7845 29.0459C63.3887 29.0459 63.7509 29.8225 63.7509 30.4956C63.7509 31.1687 63.2852 31.6346 62.6642 31.6864C63.1817 31.7382 64.0614 32.1006 64.0614 33.1361C64.0614 33.9127 63.5956 34.7411 61.7845 34.7411H59.042V29.0459H61.7845ZM59.7664 31.4275H61.5258C62.509 31.4275 62.7677 31.0133 62.7677 30.5473C62.7677 30.1849 62.6125 29.6672 61.5258 29.6672H59.7664V31.4275ZM59.7664 34.0681H61.5775C62.1985 34.0681 63.0782 34.0163 63.0782 33.0326C63.0782 32.3077 62.509 32.0488 61.5775 32.0488H59.7664V34.0681Z" fill="white"/>
<path d="M69.5469 31.4793V32.1006H66.1834V34.1198H70.0126V34.7411H65.252V29.0459H69.9091V29.6154H66.1834V31.3757H69.5469V31.4793Z" fill="white"/>
<path d="M73.6351 29.0459C74.9288 29.0459 75.8085 29.5118 75.8085 30.7027C75.8085 31.79 75.1875 32.463 73.5317 32.463H71.8758V34.7411H70.9961V29.0459H73.6351ZM71.824 31.8417H73.4282C74.4631 31.8417 74.9288 31.4275 74.9288 30.7027C74.9288 30.0296 74.4631 29.6672 73.4282 29.6672H71.824V31.8417Z" fill="white"/>
<path d="M82.3795 32.8772C82.276 33.6539 81.7068 34.9482 79.637 34.9482C77.6706 34.9482 76.5322 33.861 76.5322 32.0488C76.5322 28.9941 79.0678 28.9423 79.5852 28.9423C81.6551 28.9423 82.1725 30.0296 82.276 30.9098H81.3964C81.3446 30.4956 81.0341 29.6672 79.5852 29.6672C77.9811 29.6672 77.4637 30.858 77.4637 32.1524C77.4637 33.4468 78.2398 34.4305 79.637 34.4305C80.6719 34.4305 81.3964 33.8092 81.4481 32.9808H82.3795V32.8772Z" fill="white"/>
<path d="M87.8135 29.0459H88.6932V34.7411H87.8135V30.0814L84.3982 34.7411H83.5186V29.0459H84.3982V33.6021L87.8135 29.0459Z" fill="white"/>
<path d="M89.5723 29.6672V29.0459H94.6434V29.6672H92.5218V34.6894H91.6421V29.6672H89.5723Z" fill="white"/>
<path d="M99.8701 31.4793V32.1006H96.5066V34.1198H100.336V34.7411H95.5752V29.0459H100.232V29.6154H96.4549V31.3757H99.8701V31.4793Z" fill="white"/>
<path d="M100.646 29.6672V29.0459H105.718V29.6672H103.596V34.6894H102.716V29.6672H100.646Z" fill="white"/>
</svg>
