<svg viewBox="0 0 188 139" fill="none" xmlns="http://www.w3.org/2000/svg">
<path d="M171.289 34.8174C174.142 36.9276 175.868 40.5238 176.589 43.9139C176.804 45.5633 176.818 47.1806 176.82 48.8422C176.822 49.201 176.824 49.5597 176.826 49.9294C176.832 51.1123 176.834 52.2952 176.836 53.4781C176.839 54.3047 176.841 55.1313 176.843 55.9579C176.847 57.6905 176.849 59.4232 176.851 61.1558C176.853 63.3663 176.862 65.5766 176.873 67.787C176.88 69.495 176.882 71.203 176.883 72.911C176.884 73.7253 176.887 74.5396 176.892 75.354C176.96 86.9264 176.96 86.9264 172.561 91.6031C169.56 94.4252 166.31 95.547 162.247 95.5263C161.811 95.5264 161.811 95.5264 161.366 95.5265C160.408 95.5262 159.45 95.5232 158.491 95.5202C157.826 95.5195 157.161 95.5189 156.495 95.5185C154.746 95.5171 152.996 95.5133 151.246 95.509C149.46 95.505 147.674 95.5033 145.888 95.5013C142.385 95.4972 138.882 95.4906 135.379 95.4824C135.383 96.1287 135.383 96.1287 135.387 96.7881C135.41 100.851 135.428 104.913 135.439 108.976C135.445 111.065 135.453 113.153 135.466 115.242C135.479 117.258 135.486 119.274 135.489 121.29C135.491 122.059 135.495 122.827 135.502 123.596C135.51 124.674 135.511 125.751 135.511 126.829C135.515 127.146 135.519 127.463 135.523 127.79C135.51 130.214 134.934 131.776 133.324 133.647C130.884 135.746 128.799 135.882 125.702 135.882C125.292 135.885 124.882 135.888 124.46 135.891C123.594 135.896 122.729 135.897 121.864 135.895C120.546 135.895 119.228 135.911 117.91 135.928C117.067 135.93 116.224 135.931 115.381 135.931C114.99 135.937 114.599 135.943 114.196 135.95C111.085 135.92 109.193 135.039 107.003 132.849C105.666 130.689 105.428 128.697 105.759 126.224C106.283 124.021 107.416 122.393 109.286 121.118C111.191 119.972 112.905 120.009 115.076 120.112C115.431 120.12 115.786 120.129 116.152 120.138C117.018 120.161 117.884 120.192 118.75 120.232C118.747 119.799 118.745 119.366 118.742 118.92C118.719 114.829 118.701 110.738 118.69 106.648C118.684 104.545 118.676 102.442 118.662 100.339C118.65 98.3079 118.643 96.277 118.64 94.2459C118.638 93.4727 118.634 92.6995 118.627 91.9263C118.619 90.8397 118.618 89.7533 118.618 88.6666C118.614 88.35 118.61 88.0335 118.606 87.7074C118.62 85.0384 119.13 82.442 120.78 80.2795C123.04 78.0713 125.24 77.2561 128.368 77.2627C128.824 77.2628 129.281 77.2628 129.752 77.2628C130.243 77.2648 130.734 77.2668 131.24 77.2689C131.744 77.2694 132.248 77.27 132.768 77.2705C134.105 77.272 135.443 77.2758 136.781 77.2801C138.147 77.284 139.513 77.2858 140.879 77.2878C143.557 77.2917 146.236 77.2993 148.914 77.3066C148.786 71.5639 148.659 65.8211 148.527 59.9043C147.762 60.4786 147.762 60.4786 146.98 61.0645C146.059 61.2317 146.059 61.2317 145.053 61.2623C144.691 61.2761 144.33 61.2898 143.958 61.3039C143.583 61.3126 143.209 61.3213 142.823 61.3303C142.443 61.3435 142.063 61.3567 141.671 61.3704C140.734 61.4022 139.797 61.429 138.859 61.4512C138.827 61.7463 138.796 62.0414 138.763 62.3455C138.473 63.3848 138.473 63.3848 137.881 64.02C136.523 64.7663 135.233 64.7099 133.722 64.7012C133.4 64.7038 133.077 64.7065 132.746 64.7092C131.682 64.7163 130.618 64.7148 129.554 64.7126C128.814 64.7144 128.074 64.7164 127.335 64.7187C125.785 64.7222 124.235 64.7213 122.685 64.7174C120.698 64.713 118.711 64.7208 116.724 64.7321C115.196 64.7392 113.669 64.7391 112.142 64.7369C111.409 64.7368 110.676 64.7391 109.943 64.7439C108.919 64.7497 107.896 64.7456 106.872 64.7389C106.569 64.7427 106.266 64.7464 105.954 64.7503C104.638 64.7324 103.825 64.6556 102.737 63.8866C102.058 62.9075 101.744 62.1122 101.438 60.962C101.326 60.555 101.215 60.148 101.101 59.7287C100.987 59.2896 100.873 58.8506 100.755 58.3982C100.633 57.9421 100.51 57.4859 100.383 57.0159C99.9907 55.5549 99.6056 54.0921 99.2207 52.6292C98.9618 51.6605 98.7025 50.6919 98.4427 49.7235C97.9467 47.8726 97.4556 46.0204 96.9683 44.1672C96.5865 42.7188 96.1957 41.2745 95.781 39.8351C95.6669 39.4333 95.6669 39.4333 95.5506 39.0234C95.3613 38.3613 95.1669 37.7005 94.9721 37.04C94.745 35.7688 94.8345 34.8533 95.1601 33.6074C95.9336 32.834 95.9336 32.834 97.2629 32.7131C98.6406 32.834 98.6406 32.834 99.2528 33.2463C100.047 34.3303 100.328 35.5184 100.665 36.7994C100.742 37.0798 100.819 37.3602 100.898 37.6492C101.148 38.5649 101.393 39.4819 101.638 40.3992C101.809 41.0294 101.98 41.6596 102.151 42.2897C102.496 43.5589 102.838 44.8287 103.179 46.0989C103.62 47.7414 104.07 49.3812 104.523 51.0203C104.77 51.9191 105.017 52.8179 105.263 53.7168C105.377 54.1288 105.491 54.5409 105.609 54.9654C105.711 55.343 105.813 55.7206 105.919 56.1096C106.008 56.4341 106.096 56.7587 106.188 57.093C106.375 57.9707 106.375 57.9707 106.375 59.5176C109.948 59.39 113.522 59.2623 117.203 59.1309C116.693 58.4928 116.182 57.8547 115.656 57.1973C114.64 54.8591 114.561 52.7949 115.439 50.4055C116.466 48.3751 117.845 47.296 119.91 46.3691C121.568 46.0856 123.174 46.1257 124.851 46.1803C125.809 46.1864 126.767 46.1922 127.725 46.1977C129.222 46.2202 130.717 46.2484 132.213 46.2828C133.667 46.3119 135.12 46.3196 136.574 46.3253C137.238 46.3505 137.238 46.3505 137.916 46.3762C140.472 46.3763 141.812 46.0109 143.74 44.2802C144.311 43.6937 144.877 43.1017 145.434 42.502C146.121 41.9309 146.812 41.3651 147.512 40.8101C148.88 39.7102 150.175 38.5723 151.442 37.3602C157.194 31.8753 164.335 30.5953 171.289 34.8174Z" fill="#3F409B"/>
<path d="M32.8983 34.3809C34.2778 35.4567 35.52 36.635 36.7655 37.8613C37.245 38.2927 37.7283 38.72 38.2157 39.1423C38.458 39.3537 38.7003 39.5651 38.9499 39.7828C40.4407 41.0706 41.9383 42.3506 43.4376 43.6286C44.3318 44.3925 45.2148 45.1504 46.0468 45.9824C46.9842 46.1026 46.9842 46.1026 48.0857 46.0873C48.7248 46.0932 48.7248 46.0932 49.3767 46.0993C50.0704 46.1005 50.0704 46.1005 50.778 46.1018C51.7519 46.1115 52.7257 46.1213 53.6996 46.1312C55.239 46.1423 56.7785 46.1516 58.3179 46.1589C59.8008 46.1673 61.2835 46.1825 62.7663 46.1984C63.2256 46.1985 63.6849 46.1985 64.1582 46.1986C66.7799 46.23 68.7324 46.3385 70.7439 48.194C70.9289 48.4213 71.1138 48.6486 71.3044 48.8828C71.4943 49.1101 71.6842 49.3374 71.8799 49.5717C73.1228 51.353 72.8996 53.5755 72.7304 55.6504C72.1362 57.2348 71.6146 57.9264 70.4101 59.1309C75.77 59.3223 75.77 59.3223 81.2382 59.5176C81.4411 58.6307 81.644 57.7439 81.853 56.8302C82.809 52.7309 83.8906 48.6655 84.9859 44.6016C85.3268 43.3333 85.6629 42.0638 85.9989 40.7942C86.2169 39.9832 86.4352 39.1722 86.6538 38.3613C86.8025 37.7952 86.8025 37.7952 86.9541 37.2176C87.0975 36.6922 87.0975 36.6922 87.2438 36.1561C87.3258 35.8496 87.4079 35.5431 87.4924 35.2273C87.8594 34.2564 88.2634 33.5927 88.9726 32.834C90.3048 32.6675 91.233 32.5891 92.4289 33.2449C93.4485 35.1041 92.7392 37.4196 92.2253 39.3563C92.1599 39.6063 92.0945 39.8563 92.0271 40.1139C91.812 40.932 91.592 41.7487 91.3714 42.5654C91.2189 43.1378 91.0666 43.7102 90.9144 44.2826C90.5954 45.4788 90.2739 46.6742 89.9507 47.8692C89.5377 49.3973 89.1322 50.9273 88.7286 52.458C88.4162 53.6393 88.0992 54.8194 87.781 55.9992C87.6297 56.5628 87.4798 57.1268 87.3315 57.6912C87.1234 58.4809 86.9092 59.2687 86.6934 60.0563C86.5732 60.5041 86.453 60.952 86.3291 61.4134C85.8176 62.7741 85.4237 63.5748 84.3319 64.5449C83.1783 64.7358 82.2454 64.8021 81.0924 64.7828C80.7665 64.785 80.4406 64.7871 80.1049 64.7893C79.0282 64.7939 77.9522 64.7845 76.8755 64.7745C76.1271 64.7739 75.3787 64.7739 74.6303 64.7746C73.062 64.7739 71.494 64.7667 69.9257 64.7545C67.9152 64.7392 65.905 64.7375 63.8944 64.7404C62.3491 64.7416 60.8038 64.7369 59.2585 64.7303C58.5172 64.7276 57.7758 64.7264 57.0345 64.7267C55.9985 64.726 54.9629 64.7177 53.9269 64.7073C53.6203 64.7084 53.3137 64.7096 52.9978 64.7108C51.7488 64.6914 50.8312 64.621 49.7175 64.0317C49.1405 63.3848 49.1405 63.3848 49.0439 62.1521C49.0758 61.7932 49.1077 61.4343 49.1405 61.0645C48.9026 61.0685 48.6647 61.0726 48.4196 61.0767C47.3386 61.0928 46.2577 61.1029 45.1767 61.1128C44.6151 61.1225 44.6151 61.1225 44.0422 61.1324C43.5001 61.1362 43.5001 61.1362 42.947 61.14C42.6149 61.144 42.2827 61.1481 41.9405 61.1523C41.0194 61.0645 41.0194 61.0645 39.4726 60.291C39.345 65.9062 39.2173 71.5213 39.0858 77.3066C40.6601 77.2887 42.2344 77.2707 43.8564 77.2523C45.1213 77.2423 46.3862 77.2339 47.6511 77.2266C48.9811 77.2185 50.3109 77.2076 51.6408 77.1899C53.171 77.1697 54.7011 77.1624 56.2314 77.1556C56.7021 77.1476 57.1727 77.1396 57.6576 77.1314C60.8969 77.1305 63.7403 77.5296 66.3254 79.6134C66.5248 79.8651 66.7242 80.1168 66.9296 80.3762C67.137 80.627 67.3444 80.8777 67.558 81.1361C68.9227 83.2179 68.9712 85.0204 68.951 87.4373C68.9511 87.7922 68.9512 88.147 68.9513 88.5126C68.9508 89.6823 68.9448 90.8519 68.9387 92.0216C68.9373 92.8338 68.9362 93.6461 68.9354 94.4583C68.9325 96.5939 68.9249 98.7293 68.9163 100.865C68.9084 103.045 68.9049 105.225 68.901 107.405C68.8927 111.681 68.8795 115.957 68.8632 120.232C69.1964 120.223 69.1964 120.223 69.5364 120.214C70.5527 120.19 71.5689 120.175 72.5854 120.16C72.9348 120.15 73.2843 120.14 73.6443 120.13C76.0463 120.104 77.7852 120.349 79.6249 122.044C79.8063 122.267 79.9878 122.491 80.1747 122.722C80.3602 122.945 80.5456 123.168 80.7367 123.397C82.3011 125.588 82.2852 127.652 82.0116 130.287C81.3407 132.477 79.5983 134.042 77.7577 135.314C76.6524 135.683 75.9467 135.754 74.7987 135.763C74.4346 135.767 74.0706 135.771 73.6955 135.775C73.1063 135.777 73.1063 135.777 72.5053 135.78C72.1004 135.782 71.6956 135.784 71.2784 135.786C70.4212 135.79 69.564 135.793 68.7067 135.794C67.398 135.798 66.0895 135.81 64.7807 135.822C63.9476 135.825 63.1145 135.827 62.2814 135.828C61.891 135.833 61.5006 135.838 61.0983 135.843C58.6611 135.835 56.8902 135.601 55.0078 133.904C54.8263 133.683 54.6449 133.463 54.4579 133.236C54.2725 133.017 54.087 132.799 53.896 132.574C52.582 130.635 52.513 128.807 52.5332 126.521C52.5331 126.185 52.533 125.849 52.5329 125.503C52.5334 124.396 52.5394 123.29 52.5455 122.183C52.5469 121.414 52.548 120.645 52.5488 119.876C52.5517 117.855 52.5593 115.834 52.5679 113.813C52.5758 111.749 52.5793 109.686 52.5832 107.623C52.5915 103.576 52.6047 99.5291 52.621 95.4824C52.2565 95.485 51.8921 95.4876 51.5166 95.4902C48.069 95.5138 44.6215 95.5312 41.1739 95.5425C39.4018 95.5486 37.6297 95.5567 35.8577 95.5699C34.1451 95.5826 32.4325 95.5895 30.7199 95.5925C30.069 95.5946 29.4181 95.5988 28.7672 95.6051C23.7657 95.6515 19.4599 95.3691 15.496 92.002C12.5504 89.0156 11.0859 85.3901 11.0325 81.2087C11.0356 80.851 11.0387 80.4933 11.0419 80.1247C11.0392 79.7349 11.0365 79.345 11.0337 78.9434C11.027 77.6686 11.0314 76.3941 11.0367 75.1193C11.0356 74.2251 11.0341 73.331 11.0322 72.4369C11.0299 70.5685 11.0332 68.7002 11.0404 66.8318C11.0492 64.4458 11.0442 62.06 11.0349 59.674C11.0293 57.8293 11.0311 55.9847 11.0351 54.14C11.0361 53.2606 11.0349 52.3812 11.0313 51.5018C11.0273 50.2694 11.0334 49.0374 11.0419 47.805C11.0388 47.4473 11.0357 47.0896 11.0325 46.721C11.0827 42.7857 12.378 39.1853 15.1093 36.3145C20.0116 31.7173 27.0751 30.8056 32.8983 34.3809Z" fill="#3F409B"/>
<path d="M3.36276 36.7253C4.66794 37.0879 4.66794 37.0879 5.44137 37.8613C5.53654 38.9107 5.53654 38.9107 5.53438 40.274C5.53504 40.5242 5.5357 40.7743 5.53639 41.0321C5.53766 41.8741 5.5334 42.716 5.52918 43.5581C5.52896 44.1602 5.52908 44.7623 5.52952 45.3643C5.52974 47.0022 5.52519 48.6401 5.51979 50.2779C5.51497 51.9884 5.51451 53.6988 5.51359 55.4092C5.51118 58.6497 5.50483 61.8902 5.49708 65.1306C5.48844 68.8191 5.48418 72.5076 5.4803 76.1961C5.4722 83.7851 5.45859 91.374 5.44137 98.9629C5.93125 98.9586 6.42113 98.9543 6.92586 98.9499C11.5406 98.9107 16.1554 98.8817 20.7703 98.8627C23.1429 98.8526 25.5154 98.8389 27.888 98.817C30.1773 98.796 32.4664 98.7845 34.7558 98.7794C35.6296 98.7759 36.5034 98.7689 37.3771 98.7584C38.6003 98.7444 39.823 98.7425 41.0462 98.7434C41.4081 98.7364 41.77 98.7295 42.1429 98.7223C43.8949 98.7362 44.6518 98.787 46.0935 99.8664C46.8203 100.896 46.8203 100.896 46.8203 102.129C46.4336 103.217 46.4336 103.217 45.2734 103.99C44.5027 104.078 44.5027 104.078 43.6374 104.066C43.1719 104.062 43.1719 104.062 42.697 104.058C42.2136 104.048 42.2136 104.048 41.7204 104.039C41.3937 104.035 41.0669 104.032 40.7302 104.028C39.9243 104.019 39.1183 104.005 38.3125 103.99C38.3159 104.399 38.3193 104.807 38.3229 105.228C38.3542 109.074 38.3774 112.921 38.3926 116.768C38.4007 118.745 38.4116 120.723 38.4292 122.701C38.446 124.609 38.4552 126.517 38.4592 128.425C38.4621 129.153 38.4677 129.882 38.476 130.61C38.4872 131.63 38.4888 132.649 38.4881 133.668C38.4936 133.97 38.4992 134.272 38.5049 134.583C38.4946 135.943 38.4206 136.715 37.6021 137.824C36.4739 138.612 35.7927 138.609 34.4453 138.408C33.8024 138.017 33.8024 138.017 33.2851 137.248C33.1766 136.158 33.1386 135.153 33.1534 134.063C33.1532 133.739 33.1531 133.414 33.1529 133.08C33.1537 132.006 33.1627 130.933 33.1718 129.86C33.174 129.116 33.1756 128.372 33.1768 127.628C33.1812 125.669 33.1926 123.71 33.2055 121.751C33.2194 119.401 33.2247 117.052 33.2315 114.702C33.2428 111.131 33.265 107.561 33.2851 103.99C26.9043 103.99 20.5234 103.99 13.9492 103.99C13.9626 106.378 13.9761 108.765 13.99 111.225C13.9959 112.735 14.0015 114.245 14.0058 115.756C14.0128 118.154 14.021 120.553 14.0367 122.951C14.0493 124.884 14.0562 126.818 14.0593 128.751C14.0614 129.489 14.0656 130.228 14.0718 130.966C14.0802 131.999 14.0814 133.031 14.0809 134.063C14.0851 134.37 14.0892 134.677 14.0935 134.993C14.0819 137.051 14.0819 137.051 13.4319 138.017C12.3978 138.647 11.6489 138.577 10.4687 138.408C9.63223 137.824 9.63223 137.824 8.92184 136.861C8.7772 135.746 8.72572 134.782 8.74623 133.668C8.74601 133.347 8.74578 133.027 8.74555 132.696C8.74662 131.637 8.75865 130.579 8.77078 129.52C8.77367 128.785 8.77587 128.05 8.77741 127.315C8.78332 125.383 8.79851 123.45 8.81563 121.517C8.83146 119.545 8.83852 117.572 8.84631 115.599C8.86289 111.73 8.88929 107.86 8.92184 103.99C8.4373 104.008 7.95275 104.026 7.45352 104.045C6.81504 104.059 6.17655 104.073 5.53805 104.087C5.21901 104.1 4.89997 104.113 4.57126 104.126C4.26218 104.131 3.95311 104.136 3.63467 104.141C3.35115 104.149 3.06762 104.157 2.77551 104.166C1.56986 103.906 1.13936 103.43 0.414029 102.443C0.219369 101.262 0.219369 101.262 0.217602 99.8479C0.215189 99.5874 0.212775 99.3269 0.210289 99.0585C0.204121 98.1858 0.209006 97.3136 0.213872 96.441C0.211776 95.8153 0.209022 95.1895 0.205658 94.5638C0.198601 92.8643 0.201343 91.1649 0.206245 89.4654C0.210159 87.6872 0.206529 85.909 0.2041 84.1309C0.201285 81.1442 0.204997 78.1576 0.212362 75.1709C0.220777 71.7181 0.218055 68.2654 0.209536 64.8126C0.202516 61.8485 0.201527 58.8845 0.205575 55.9204C0.207986 54.1499 0.208308 52.3795 0.203198 50.609C0.198728 48.9441 0.201831 47.2794 0.210768 45.6145C0.212813 45.0036 0.212227 44.3926 0.208815 43.7817C0.204585 42.9473 0.209892 42.1136 0.217602 41.2793C0.218185 40.8125 0.218768 40.3458 0.219369 39.8649C0.542813 37.8209 1.22795 36.6885 3.36276 36.7253Z" fill="#3F409B"/>
<path d="M185.121 36.7253C186.426 37.0879 186.426 37.0879 187.199 37.8613C187.298 38.9679 187.298 38.9679 187.3 40.413C187.302 40.8107 187.302 40.8107 187.304 41.2165C187.308 42.1092 187.307 43.0019 187.305 43.8946C187.307 44.533 187.309 45.1713 187.311 45.8096C187.317 47.5466 187.317 49.2836 187.316 51.0206C187.315 52.469 187.317 53.9173 187.319 55.3656C187.323 58.7816 187.324 62.1976 187.321 65.6136C187.319 69.1415 187.324 72.6694 187.332 76.1973C187.339 79.2227 187.341 82.2482 187.34 85.2736C187.339 87.0821 187.34 88.8906 187.345 90.6991C187.35 92.3995 187.35 94.0998 187.345 95.8002C187.344 96.4252 187.345 97.0502 187.348 97.6752C187.352 98.5267 187.349 99.3778 187.344 100.229C187.344 100.706 187.344 101.183 187.344 101.675C187.199 102.83 187.199 102.83 186.718 103.566C185.857 104.104 185.33 104.124 184.318 104.104C183.991 104.1 183.663 104.096 183.325 104.092C182.984 104.082 182.644 104.073 182.293 104.063C181.947 104.058 181.602 104.052 181.247 104.047C180.395 104.033 179.543 104.014 178.691 103.99C178.695 104.611 178.695 104.611 178.699 105.245C178.723 109.143 178.74 113.041 178.751 116.939C178.758 118.943 178.766 120.947 178.779 122.951C178.791 124.884 178.798 126.818 178.801 128.751C178.804 129.489 178.808 130.228 178.814 130.966C178.822 131.999 178.824 133.031 178.823 134.063C178.827 134.37 178.831 134.677 178.836 134.993C178.824 137.051 178.824 137.051 178.174 138.017C177.14 138.647 176.391 138.577 175.211 138.408C174.374 137.824 174.374 137.824 173.664 136.861C173.519 135.746 173.468 134.782 173.488 133.668C173.488 133.347 173.488 133.027 173.488 132.696C173.489 131.637 173.501 130.579 173.513 129.52C173.516 128.785 173.518 128.05 173.52 127.315C173.525 125.383 173.541 123.45 173.558 121.517C173.576 119.198 173.583 116.878 173.593 114.559C173.608 111.036 173.637 107.513 173.664 103.99C167.411 103.99 161.158 103.99 154.715 103.99C154.733 106.345 154.751 108.7 154.769 111.126C154.777 112.617 154.785 114.108 154.79 115.599C154.8 117.966 154.811 120.334 154.831 122.701C154.848 124.609 154.858 126.517 154.862 128.425C154.864 129.153 154.87 129.882 154.878 130.61C154.89 131.63 154.891 132.649 154.89 133.668C154.896 133.97 154.902 134.272 154.907 134.583C154.897 135.943 154.823 136.715 154.004 137.824C152.876 138.612 152.195 138.609 150.848 138.408C150.205 138.017 150.205 138.017 149.687 137.248C149.579 136.158 149.541 135.153 149.556 134.063C149.556 133.739 149.555 133.414 149.555 133.08C149.556 132.006 149.565 130.933 149.574 129.86C149.576 129.116 149.578 128.372 149.579 127.628C149.584 125.669 149.595 123.71 149.608 121.751C149.62 119.753 149.625 117.754 149.631 115.756C149.643 111.834 149.663 107.912 149.687 103.99C149.363 103.999 149.363 103.999 149.031 104.009C148.05 104.033 147.068 104.048 146.086 104.063C145.745 104.072 145.405 104.082 145.054 104.092C144.562 104.098 144.562 104.098 144.06 104.104C143.608 104.113 143.608 104.113 143.146 104.122C142.12 103.954 141.79 103.661 141.18 102.83C141.01 101.477 141.01 101.477 141.18 100.123C141.864 99.3008 142.438 99.0009 143.499 98.8612C144.509 98.8193 145.512 98.8196 146.523 98.8312C147.101 98.8309 147.101 98.8309 147.69 98.8307C148.962 98.8315 150.234 98.8405 151.506 98.8496C152.388 98.8518 153.271 98.8534 154.153 98.8546C156.475 98.859 158.796 98.8704 161.118 98.8832C163.487 98.8951 165.857 98.9004 168.226 98.9062C172.874 98.9187 177.523 98.9385 182.172 98.9629C182.17 98.6538 182.169 98.3446 182.167 98.0261C182.133 90.506 182.108 82.9858 182.092 75.4656C182.084 71.8289 182.073 68.1923 182.055 64.5556C182.04 61.386 182.03 58.2165 182.026 55.0469C182.024 53.3685 182.02 51.6901 182.008 50.0117C181.998 48.4319 181.995 46.8523 181.997 45.2725C181.996 44.6927 181.993 44.1129 181.987 43.5332C181.98 42.7413 181.982 41.9494 181.986 41.1576C181.984 40.7145 181.983 40.2714 181.981 39.8149C182.308 37.7928 183.019 36.6891 185.121 36.7253Z" fill="#3F409B"/>
<path d="M52.6845 65.9865C53.1904 65.9887 53.1904 65.9887 53.7066 65.991C54.0636 65.9895 54.4206 65.988 54.7884 65.9865C55.992 65.9825 57.1956 65.984 58.3992 65.9856C59.2591 65.9839 60.119 65.9819 60.9789 65.9796C63.32 65.9744 65.661 65.9742 68.002 65.9752C69.953 65.9756 71.9041 65.9737 73.8551 65.9718C78.7192 65.9673 83.5833 65.9676 88.4474 65.9701C92.6755 65.9721 96.9037 65.9678 101.132 65.9604C105.47 65.9529 109.807 65.9498 114.145 65.9512C116.582 65.9519 119.018 65.9508 121.455 65.9455C123.746 65.9406 126.036 65.9414 128.327 65.9464C129.169 65.9473 130.012 65.9463 130.855 65.9431C132.001 65.9391 133.147 65.9421 134.293 65.9471C134.631 65.9442 134.968 65.9414 135.315 65.9384C136.241 65.9469 136.241 65.9469 137.699 66.0918C138.594 67.4337 138.604 67.9964 138.473 69.5723C138.217 69.9551 137.962 70.338 137.699 70.7324C136.958 70.8752 136.958 70.8752 136.035 70.8719C135.686 70.8735 135.337 70.8751 134.977 70.8768C134.593 70.8726 134.209 70.8684 133.813 70.8641C133.409 70.8643 133.006 70.8645 132.59 70.8646C131.25 70.8638 129.911 70.8548 128.572 70.8457C127.645 70.8436 126.719 70.8419 125.792 70.8407C123.35 70.8363 120.907 70.8249 118.464 70.8121C115.973 70.8002 113.482 70.7949 110.991 70.7891C106.101 70.7766 101.211 70.757 96.3203 70.7324C96.3214 71.0602 96.3224 71.388 96.3235 71.7257C96.3491 79.6942 96.3683 87.6626 96.3804 95.6311C96.3864 99.4846 96.3946 103.338 96.4078 107.192C96.4194 110.549 96.4269 113.907 96.4295 117.265C96.431 119.044 96.4345 120.823 96.443 122.601C96.4508 124.274 96.4533 125.947 96.4515 127.62C96.4518 128.235 96.4542 128.85 96.4586 129.465C96.4643 130.303 96.463 131.141 96.4598 131.979C96.4609 132.449 96.4619 132.918 96.463 133.402C96.3203 134.541 96.3203 134.541 95.8161 135.271C94.6951 136.006 93.7453 135.863 92.4531 135.701C91.5141 134.811 91.3063 134.264 91.1502 132.973C91.1513 132.507 91.1523 132.041 91.1534 131.561C91.1524 131.3 91.1515 131.04 91.1504 130.772C91.1485 129.9 91.1549 129.028 91.1612 128.157C91.1616 127.532 91.1614 126.907 91.1607 126.282C91.1604 124.585 91.1672 122.888 91.1753 121.191C91.1826 119.417 91.1833 117.644 91.1846 115.871C91.1882 112.512 91.1978 109.154 91.2094 105.796C91.2224 101.973 91.2287 98.1495 91.2346 94.3263C91.2467 86.4617 91.2671 78.597 91.2929 70.7324C91.0828 70.7338 90.8726 70.7353 90.656 70.7367C85.5437 70.7709 80.4313 70.7964 75.3189 70.8126C72.8466 70.8206 70.3743 70.8316 67.902 70.8491C65.5175 70.8659 63.133 70.8752 60.7483 70.8792C59.8372 70.882 58.9261 70.8876 58.015 70.896C56.7417 70.9072 55.4688 70.9087 54.1954 70.908C53.8163 70.9136 53.4372 70.9192 53.0465 70.9249C52.7 70.9228 52.3535 70.9206 51.9965 70.9184C51.6953 70.9199 51.3941 70.9213 51.0837 70.9228C50.3008 70.7324 50.3008 70.7324 49.6102 70.0229C49.1406 69.1855 49.1406 69.1855 49.2131 67.977C49.7974 65.9094 50.699 66.0012 52.6845 65.9865Z" fill="#3F409B"/>
<path d="M167.17 2.79379C170.855 5.37277 173.146 8.68801 174.051 13.1113C174.437 17.2554 173.744 21.2829 171.247 24.6887C168.322 28.0793 164.834 29.9883 160.371 30.4895C155.879 30.7006 151.894 29.3425 148.527 26.3444C145.452 23.11 144.113 19.1007 144.166 14.699C144.6 9.83929 146.741 6.34262 150.402 3.2651C155.335 -0.262582 162.031 -0.28052 167.17 2.79379Z" fill="#3F409B"/>
<path d="M36.959 2.85271C39.8061 4.88703 42.2085 7.87293 43.1692 11.2805C43.8655 15.5939 43.753 19.7543 41.4063 23.5527C38.3581 27.6787 35.2185 29.6326 30.1914 30.5137C26.5245 31.0057 22.7039 29.8453 19.7606 27.6737C16.8454 25.2921 14.7706 22.6752 13.9492 18.9121C13.5858 13.7199 13.8958 9.56577 17.3572 5.40112C22.5401 0.0438328 30.4938 -0.955687 36.959 2.85271Z" fill="#3F409B"/>
</svg>
